HIERARCHY
ROOT Hips
{
    OFFSET 0.000000 0.000000 0.000000
    CHANNELS 6 Xposition Yposition Zposition Zrotation Xrotation Yrotation
    JOINT Spine
    {
        OFFSET -0.000000 7.236184 0.000000
        CHANNELS 3 Zrotation Xrotation Yrotation
        JOINT Spine1
        {
            OFFSET -0.000000 20.420147 0.000000
            CHANNELS 3 Zrotation Xrotation Yrotation
            JOINT Neck
            {
                OFFSET -0.000000 20.336288 1.848754
                CHANNELS 3 Zrotation Xrotation Yrotation
                JOINT Head
                {
                    OFFSET -0.000000 12.354461 -1.764923
                    CHANNELS 3 Zrotation Xrotation Yrotation
                    End Site
                    {
                        OFFSET -0.000000 22.061537 0.000000
                    }
                }
            }
            JOINT LeftShoulder
            {
                OFFSET 3.573296 18.396038 -0.314103
                CHANNELS 3 Zrotation Xrotation Yrotation
                JOINT LeftArm
                {
                    OFFSET 10.880760 0.000000 0.000000
                    CHANNELS 3 Zrotation Xrotation Yrotation
                    JOINT LeftForeArm
                    {
                        OFFSET 27.185530 0.000000 0.000000
                        CHANNELS 3 Zrotation Xrotation Yrotation
                        JOINT LeftHand
                        {
                            OFFSET 27.825975 0.000000 0.000000
                            CHANNELS 3 Zrotation Xrotation Yrotation
                            End Site
                            {
                                OFFSET 13.236923 0.000000 0.000000
                            }
                        }
                    }
                }
            }
            JOINT RightShoulder
            {
                OFFSET -3.474926 18.396038 -0.314103
                CHANNELS 3 Zrotation Xrotation Yrotation
                JOINT RightArm
                {
                    OFFSET -10.880760 0.000000 0.000000
                    CHANNELS 3 Zrotation Xrotation Yrotation
                    JOINT RightForeArm
                    {
                        OFFSET -27.185530 0.000000 0.000000
                        CHANNELS 3 Zrotation Xrotation Yrotation
                        JOINT RightHand
                        {
                            OFFSET -27.825975 0.000000 0.000000
                            CHANNELS 3 Zrotation Xrotation Yrotation
                            End Site
                            {
                                OFFSET -13.236923 0.000000 0.000000
                            }
                        }
                    }
                }
            }
        }
    }
    JOINT LeftUpLeg
    {
        OFFSET 8.824615 0.000000 0.000000
        CHANNELS 3 Zrotation Xrotation Yrotation
        JOINT LeftLeg
        {
            OFFSET -0.000000 -35.111282 0.000000
            CHANNELS 3 Zrotation Xrotation Yrotation
            JOINT LeftFoot
            {
                OFFSET -0.000000 -42.324711 0.000000
                CHANNELS 3 Zrotation Xrotation Yrotation
                JOINT LeftToeBase
                {
                    OFFSET -0.000000 -5.735999 13.236923
                    CHANNELS 3 Zrotation Xrotation Yrotation
                    End Site
                    {
                        OFFSET -0.000000 0.000000 3.529846
                    }
                }
            }
        }
    }
    JOINT RightUpLeg
    {
        OFFSET -8.824615 0.000000 0.000000
        CHANNELS 3 Zrotation Xrotation Yrotation
        JOINT RightLeg
        {
            OFFSET -0.000000 -35.111282 0.000000
            CHANNELS 3 Zrotation Xrotation Yrotation
            JOINT RightFoot
            {
                OFFSET -0.000000 -42.324711 0.000000
                CHANNELS 3 Zrotation Xrotation Yrotation
                JOINT RightToeBase
                {
                    OFFSET -0.000000 -5.735999 13.236923
                    CHANNELS 3 Zrotation Xrotation Yrotation
                    End Site
                    {
                        OFFSET -0.000000 0.000000 3.529846
                    }
                }
            }
        }
    }
}
MOTION
Frames:    5
Frame Time:    0.008333
-6.114720    82.693871    102.358337    0.127316    -1.820495    -175.800537    -0.476547    -11.330074    1.270050    -1.645612    10.140425    1.463366    2.030591    10.283400    -5.199825    19.560202    -18.009832    0.283586    -4.914178    19.151537    2.973845    -55.008030    32.656834    -28.546469    29.721478    -21.002171    -52.535275    14.472347    -6.256684    0.997154    8.529143    19.606604    -9.259673    51.413300    34.969582    23.937590    -28.812107    -23.886230    63.062355    -27.356709    -5.809829    -2.380662    3.262463    -11.223814    -3.023937    0.966965    23.058336    2.169932    -6.282823    -11.348480    -10.486493    -0.612542    -1.249942    0.680526    -3.995771    -7.005180    0.726281    1.241748    17.905987    6.214484    -0.623132    -8.927567    -14.390812    -1.879311    -1.276121    2.036190    
-6.043922    82.694542    102.352783    0.102167    -1.819412    -175.841080    -0.418889    -11.337361    1.229615    -1.573920    10.205071    1.411793    2.035448    10.152974    -5.053820    19.017763    -17.998264    0.267699    -4.928038    19.179113    2.875852    -54.838516    32.711849    -28.574621    29.560854    -20.795273    -52.294563    14.424833    -6.210715    0.931930    8.568759    19.638050    -9.231820    51.021164    34.892075    24.157221    -28.623955    -23.684015    62.993439    -27.028419    -5.789072    -2.206030    3.296838    -11.192560    -2.977720    0.967929    23.017830    2.175216    -6.334035    -11.332691    -10.501704    -0.619025    -1.258183    0.687740    -3.967692    -7.003956    0.750928    1.241340    17.903063    6.252040    -0.656858    -8.926038    -14.414644    -1.879238    -1.261994    2.036070    
-5.974198    82.696686    102.347160    0.078861    -1.827404    -175.883621    -0.358739    -11.344342    1.187181    -1.498025    10.256217    1.357289    2.036409    10.026397    -4.902450    18.458916    -17.992395    0.253928    -4.931540    19.194365    2.801151    -54.694336    32.663303    -28.547737    29.364000    -20.551100    -52.119614    14.357537    -6.121465    0.870593    8.588939    19.654978    -9.216551    50.654034    34.719475    24.311211    -28.392263    -23.441748    62.990280    -26.685574    -5.729278    -2.031963    3.331616    -11.166341    -2.930630    0.969206    22.970684    2.182831    -6.382413    -11.314623    -10.517111    -0.625695    -1.266147    0.695160    -3.938991    -7.005709    0.778344    1.240306    17.887426    6.286886    -0.686795    -8.919409    -14.436134    -1.879916    -1.246662    2.036761    
-5.903507    82.700439    102.341309    0.056608    -1.845036    -175.929550    -0.294135    -11.351236    1.141614    -1.415708    10.294745    1.298360    2.033620    9.900852    -4.741035    17.866209    -17.992485    0.241875    -4.924927    19.197952    2.747727    -54.568733    32.513935    -28.464218    29.127316    -20.267862    -52.003498    14.273882    -5.991563    0.812706    8.589955    19.656088    -9.212805    50.300320    34.448250    24.402298    -28.110136    -23.152758    63.051968    -26.321474    -5.629906    -1.854682    3.367769    -11.144506    -2.881751    0.970483    22.915184    2.194104    -6.429542    -11.293558    -10.533544    -0.632831    -1.273356    0.703098    -3.909045    -7.010665    0.809514    1.238855    17.858301    6.320758    -0.715659    -8.907151    -14.456908    -1.881368    -1.229823    2.038285    
-5.834044    82.705658    102.335373    0.035878    -1.871832    -175.977768    -0.226870    -11.358034    1.094432    -1.329570    10.319309    1.237068    2.027015    9.781463    -4.574332    17.257202    -17.999132    0.231961    -4.907907    19.189939    2.717565    -54.466026    32.265213    -28.325844    28.855299    -19.953993    -51.951313    14.180652    -5.826168    0.759578    8.570772    19.639753    -9.219524    49.969448    34.087654    24.426146    -27.786324    -22.826162    63.175781    -25.950493    -5.494940    -1.681026    3.403996    -11.127399    -2.833282    0.971385    22.852528    2.210337    -6.474007    -11.270002    -10.551075    -0.640169    -1.280395    0.711259    -3.879106    -7.018595    0.843710    1.237186    17.816555    6.354265    -0.741653    -8.890041    -14.477769    -1.883549    -1.211897    2.040598    
